<?xml version="1.0" encoding="UTF-8" standalone="no"?>
<svg
   xmlns:dc="http://purl.org/dc/elements/1.1/"
   xmlns:cc="http://creativecommons.org/ns#"
   xmlns:rdf="http://www.w3.org/1999/02/22-rdf-syntax-ns#"
   xmlns:svg="http://www.w3.org/2000/svg"
   xmlns="http://www.w3.org/2000/svg"
   xmlns:xlink="http://www.w3.org/1999/xlink"
   id="svg39"dsadas
   version="1.1"
   viewBox="0 0 174 49"
   height="49px"
   width="174px">
  <metadata
     id="metadata43">
    <rdf:RDF>
      <cc:Work
         rdf:about="">
        <dc:format>image/svg+xml</dc:format>
        <dc:type
           rdf:resource="http://purl.org/dc/dcmitype/StillImage" />
      </cc:Work>
    </rdf:RDF>
  </metadata>
  <!-- Generator: sketchtool 52.5 (67469) - http://www.bohemiancoding.com/sketch -->
  <title
     id="title2">8B6567A0-A6D6-44F4-B9A3-3087D61F8FCF</title>
  <desc
     id="desc4">Created with sketchtool.</desc>
  <defs
     id="defs8">
    <polygon
       points="0.000193333333 0.55 173.211393 0.55 173.211393 29.2728562 0.000193333333 29.2728562"
       id="path-1" />
    <polygon
       points="0.3638 0.8564375 12.8398 0.8564375 12.8398 14 0.3638 14"
       id="path-3" />
  </defs>
  <g
     fill-rule="evenodd"
     fill="none"
     stroke-width="1"
     stroke="none"
     id="Page-1">
    <g
       transform="translate(-36.000000, -25.000000)"
       id="CAPITAL-MARKETS-TRANSATIONS_LANDING-PAGE">
      <g
         id="Main_Nav">
        <g
           id="Nav">
          <g
             transform="translate(36.000000, 25.000000)"
             id="Logo">
            <g
               id="Group-3">
              <mask
                 fill="white"
                 id="mask-2">
                <use
                   id="use10"
                   xlink:href="#path-1" />
              </mask>
              <g
                 id="Clip-2" />
              <path
                 mask="url(#mask-2)"
                 fill="#005EAD"
                 id="Fill-1"
                 d="M0.000193333333,11.8082313 L0.000193333333,1.63635625 L26.6415267,1.63635625 L26.6415267,11.8082313 L22.9159933,11.8082313 C22.9159933,7.72204375 21.7115267,5.15679375 17.0985933,5.15679375 L17.0985933,23.0670437 C17.0985933,24.0629187 17.6573267,24.6654812 18.6607267,24.6654812 L21.0715933,24.6654812 L21.0715933,28.1936688 L5.49086,28.1936688 L5.49086,24.6654812 L7.98292667,24.6654812 C8.98246,24.6654812 9.54892667,24.0629187 9.54892667,23.0670437 L9.54892667,5.15679375 C4.93212667,5.15679375 3.72959333,7.72204375 3.72959333,11.8082313 L0.000193333333,11.8082313 Z M37.32706,14.9314812 C37.32706,22.0827938 39.1695267,25.4734187 43.1869933,25.4734187 C47.1947933,25.4734187 49.0507933,22.0827938 49.0507933,14.9314812 C49.0507933,7.78016875 47.1947933,4.35466875 43.1869933,4.35466875 C39.1695267,4.35466875 37.32706,7.78016875 37.32706,14.9314812 Z M57.7565933,14.9314812 C57.7565933,23.7955438 52.01846,29.2728563 43.1869933,29.2728563 C34.35746,29.2728563 28.61546,23.7955438 28.61546,14.9314812 C28.61546,6.06548125 34.35746,0.54941875 43.1869933,0.54941875 C52.01846,0.54941875 57.7565933,6.06548125 57.7565933,14.9314812 Z M62.9533933,6.75910625 C62.9533933,5.76129375 62.39466,5.15679375 61.39126,5.15679375 L58.90306,5.15679375 L58.90306,1.63635625 L75.7249933,1.63635625 C82.2983267,1.63635625 86.1959267,3.67654375 86.1959267,9.16935625 C86.1959267,14.6544188 82.2983267,16.7391687 74.9149267,16.7391687 L70.5011267,16.7391687 L70.5011267,23.0670437 C70.5011267,24.0629187 71.0579267,24.6654812 72.06326,24.6654812 L74.75446,24.6654812 L74.75446,28.1936688 L58.9455933,28.1936688 L58.9455933,24.6654812 L61.39126,24.6654812 C62.39466,24.6654812 62.9533933,24.0629187 62.9533933,23.0670437 L62.9533933,6.75910625 Z M70.5011267,13.2071063 L73.9463267,13.2071063 C76.7573933,13.2071063 78.64046,11.6900437 78.64046,9.20423125 C78.64046,6.72229375 76.8463267,5.15679375 74.5939933,5.15679375 L70.5011267,5.15679375 L70.5011267,13.2071063 Z M91.5377267,6.75910625 C91.5377267,5.76129375 90.98286,5.15679375 89.97946,5.15679375 L87.4873933,5.15679375 L87.4873933,1.63635625 L104.303527,1.63635625 C110.89426,1.63635625 114.78026,3.67654375 114.78026,9.16935625 C114.78026,14.6544188 110.89426,16.7391687 103.49926,16.7391687 L99.0893267,16.7391687 L99.0893267,23.0670437 C99.0893267,24.0629187 99.6499933,24.6654812 100.655327,24.6654812 L103.338793,24.6654812 L103.338793,28.1936688 L87.5299267,28.1936688 L87.5299267,24.6654812 L89.97946,24.6654812 C90.98286,24.6654812 91.5377267,24.0629187 91.5377267,23.0670437 L91.5377267,6.75910625 Z M99.0893267,13.2071063 L102.534527,13.2071063 C105.345593,13.2071063 107.232527,11.6900437 107.232527,9.20423125 C107.232527,6.72229375 105.426793,5.15679375 103.182193,5.15679375 L99.0893267,5.15679375 L99.0893267,13.2071063 Z M129.66306,1.63635625 L135.98506,21.6642937 C136.789327,24.1036062 137.344193,24.6654812 138.75166,24.6654812 L139.73766,24.6654812 L139.73766,28.1936688 L125.467727,28.1936688 L125.467727,24.6654812 L126.67606,24.6654812 C127.87666,24.6654812 128.881993,24.5046688 128.881993,24.0629187 C128.881993,23.6676687 128.83946,23.2278563 128.680927,22.6252937 L127.834127,19.7422937 L120.03506,19.7422937 L119.551727,21.3446062 C119.105127,22.7454187 118.94466,23.3460437 118.94466,23.9098562 C118.94466,24.5453562 120.352127,24.6654812 121.43286,24.6654812 L122.594793,24.6654812 L122.594793,28.1936688 L110.803393,28.1936688 L110.803393,24.6654812 L112.162527,24.6654812 C113.57386,24.6654812 114.13646,24.1036062 114.932993,21.6642937 L121.643593,1.63635625 L129.66306,1.63635625 Z M121.196993,16.2141063 L126.62966,16.2141063 L124.131793,7.60579375 L124.046727,7.60579375 L121.196993,16.2141063 Z M164.785927,19.9360437 L164.867127,19.9360437 L164.867127,6.75910625 C164.867127,5.76129375 164.30646,5.15679375 163.299193,5.15679375 L160.84966,5.15679375 L160.84966,1.63635625 L173.211393,1.63635625 L173.211393,5.15679375 L170.80246,5.15679375 C169.797127,5.15679375 169.244193,5.76129375 169.244193,6.75910625 L169.244193,28.1936688 L161.135793,28.1936688 L149.978527,8.44279375 L149.903127,8.44279375 L149.903127,23.0670437 C149.903127,24.0629187 150.463793,24.6654812 151.469127,24.6654812 L153.914793,24.6654812 L153.914793,28.1936688 L141.51246,28.1936688 L141.51246,24.6654812 L143.963927,24.6654812 C144.965393,24.6654812 145.522193,24.0629187 145.522193,23.0670437 L145.522193,6.75910625 C145.522193,5.76129375 144.965393,5.15679375 143.963927,5.15679375 L141.47186,5.15679375 L141.47186,1.63635625 L154.392327,1.63635625 L164.785927,19.9360437 Z" />
            </g>
            <path
               fill="#231F20"
               id="Fill-4"
               d="M59.5897674,46.3165755 L56.2130233,36 L53.8465116,36 L50.2725581,46.4626645 C50.1106977,46.9701316 49.744186,47.3872542 49.2586047,47.3872542 L49,47.3872542 L49,49 L53.5153488,49 L53.5153488,47.3872542 L52.5367442,47.3872542 C52.0697674,47.3872542 51.7051163,47.1527429 51.8911628,46.4626645 L52.3395349,45.15363 L56.4846512,45.15363 L56.9106977,46.4626645 C57.1023256,47.1219873 56.8102326,47.3872542 56.2744186,47.3872542 L55.3311628,47.3872542 L55.3311628,49 L61,49 L61,47.3872542 L60.8027907,47.3872542 C60.5460465,47.3872542 59.9172093,47.3142097 59.5897674,46.3165755 Z M52.9813953,43.2909951 L54.4716279,38.9563803 L55.88,43.2909951 L52.9813953,43.2909951 Z" />
            <path
               fill="#231F20"
               id="Fill-6"
               d="M0,41.0350488 L1.31360137,41.0350488 C1.35876818,39.3701568 1.4603935,37.6091393 3.84858854,37.6091393 L4.18169376,37.6091393 L4.18169376,46.2277433 C4.18169376,46.9352263 3.78083832,47.3947057 3.1635586,47.3947057 L2.08331908,47.3947057 L2.08331908,49 L8.88092387,49 L8.88092387,47.3947057 L7.8364414,47.3947057 C7.21727973,47.3947057 6.8201882,46.9352263 6.8201882,46.2277433 L6.8201882,37.6091393 L7.15141146,37.6091393 C9.54148845,37.6091393 9.64311377,39.3701568 9.68828058,41.0350488 L11,41.0350488 L11,36 L0,36 L0,41.0350488 Z" />
            <g
               transform="translate(12.000000, 35.000000)"
               id="Group-10">
              <mask
                 fill="white"
                 id="mask-4">
                <use
                   id="use18"
                   xlink:href="#path-3" />
              </mask>
              <g
                 id="Clip-9" />
              <path
                 mask="url(#mask-4)"
                 fill="#231F20"
                 id="Fill-8"
                 d="M6.6398,0.8564375 C2.7118,0.8564375 0.3638,3.4983125 0.3638,7.4395625 C0.3638,11.1764375 2.7118,14.0001875 6.6398,14.0001875 C10.5658,14.0001875 12.8398,11.1764375 12.8398,7.4395625 C12.8398,3.4983125 10.5658,0.8564375 6.6398,0.8564375 M6.6398,12.2076875 C3.9038,12.2076875 3.4378,9.0389375 3.4378,7.4395625 C3.4378,5.0789375 4.1058,2.6433125 6.6398,2.6433125 C9.1738,2.6433125 9.8398,5.0789375 9.8398,7.4395625 C9.8398,9.0389375 9.3738,12.2076875 6.6398,12.2076875" />
            </g>
            <path
               fill="#231F20"
               id="Fill-11"
               d="M33.4921555,36 L26.0694065,36 L26.0694065,37.6028977 L26.8347544,37.6028977 C27.4500341,37.6028977 27.7070259,37.9142519 27.7070259,38.6215257 L27.7070259,46.3746304 C27.7070259,47.0799823 27.4500341,47.3932584 26.8347544,47.3932584 L26,47.3932584 L26,49 L32.4191678,49 L32.4191678,47.3932584 L31.09294,47.3932584 C30.4795362,47.3932584 30.2225443,47.0799823 30.2225443,46.3746304 L30.2225443,43.1265523 L33.6028308,43.1265523 C35.4711801,43.1265523 37,41.6235955 37,39.6805145 C37,37.2473389 35.3642565,36 33.4921555,36 M32.6742838,41.3929627 L30.2225443,41.3929627 L30.2225443,37.6028977 L32.5035812,37.6028977 C33.28206,37.6028977 34.2575034,38.1890893 34.2575034,39.4172088 C34.2575034,40.2897694 33.9236016,41.3929627 32.6742838,41.3929627" />
            <path
               fill="#231F20"
               id="Fill-13"
               d="M46.6047067,43.1265523 C48.4711801,43.1265523 50,41.6255174 50,39.6824364 C50,37.2473389 48.3642565,36 46.4921555,36 L39.0712824,36 L39.0712824,37.6048196 L39.8347544,37.6048196 C40.45191,37.6048196 40.7070259,37.9161739 40.7070259,38.6215257 L40.7070259,46.3746304 C40.7070259,47.0819042 40.45191,47.3951804 39.8347544,47.3951804 L39,47.3951804 L39,49 L45.4191678,49 L45.4191678,47.3951804 L44.0948158,47.3951804 C43.4795362,47.3951804 43.2225443,47.0819042 43.2225443,46.3746304 L43.2225443,43.1265523 L46.6047067,43.1265523 Z M43.2225443,37.6048196 L45.5035812,37.6048196 C46.28206,37.6048196 47.2556276,38.1890893 47.2556276,39.4172088 C47.2556276,40.2916913 46.9236016,41.3929627 45.6742838,41.3929627 L43.2225443,41.3929627 L43.2225443,37.6048196 Z" />
            <path
               fill="#231F20"
               id="Fill-15"
               d="M71.2180828,37.6072168 L72.226918,37.6072168 C72.8586364,37.6072168 73.1170667,37.9186631 73.1170667,38.6223011 L73.1170667,45.0588583 L67.5273156,36 L63.0727433,36 L63.0727433,37.6033718 L63.8537771,37.6033718 C64.4797526,37.6033718 64.7439258,37.9186631 64.7439258,38.6223011 L64.7439258,46.3757764 C64.7439258,47.0813369 64.4797526,47.3947057 63.8537771,47.3947057 L63,47.3947057 L63,49 L68.1915771,49 L68.1915771,47.3947057 L67.1808276,47.3947057 C66.5510234,47.3947057 66.2906788,47.0813369 66.2906788,46.3757764 L66.2906788,39.435522 L72.1139744,48.9942325 L74.6025622,48.9942325 L74.6025622,38.6223011 C74.6025622,37.9186631 74.8629068,37.6072168 75.4927109,37.6072168 L76,37.6072168 L76,36 L71.2180828,36 L71.2180828,37.6072168 Z" />
            <path
               fill="#231F20"
               id="Fill-17"
               d="M98.1918792,47.3915939 C97.5422134,47.3915939 97.2728398,47.0760693 97.2728398,46.3719106 L97.2728398,38.6184697 C97.2728398,37.9143111 97.5422134,37.6045582 98.1918792,37.6045582 L98.9247338,37.6045582 L98.9247338,36 L93.7927705,36 L91.1188413,44.5114696 L88.2012874,36 L83.0713048,36 L83.0713048,37.6045582 L83.8061401,37.6045582 C84.4538252,37.6045582 84.7231988,37.9143111 84.7231988,38.6184697 L84.7231988,46.3719106 C84.7231988,47.0760693 84.4538252,47.3915939 83.8061401,47.3915939 L83,47.3915939 L83,49 L87.9378559,49 L87.9378559,47.3915939 L87.2426343,47.3915939 C86.5969299,47.3915939 86.3216143,47.0760693 86.3216143,46.3719106 L86.3216143,38.6454048 L89.7660312,48.9923043 L91.425848,48.9923043 L94.6464471,38.7165902 L94.6464471,46.3719106 C94.6464471,47.0760693 94.3770735,47.3915939 93.7293885,47.3915939 L93.256004,47.3915939 L93.256004,49 L99,49 L99,47.3915939 L98.1918792,47.3915939 Z" />
            <path
               fill="#231F20"
               id="Fill-19"
               d="M112,41.0683837 L112,36 L101,36 L101,37.6047957 L101.76753,37.6047957 C102.195611,37.6047957 102.572776,37.8453227 102.572776,38.5515098 L102.572776,46.5196862 C102.572776,47.0334517 102.267272,47.3952043 101.839191,47.3952043 L101,47.3952043 L101,49 L111.983028,49 L111.983028,43.7103316 L110.691239,43.7103316 L110.691239,45.2939609 C110.691239,46.4080817 109.938797,47.3952043 108.433911,47.3952043 L105.099777,47.3952043 L105.099777,43.3947602 L106.385908,43.3947602 C107.076119,43.3947602 107.568318,44.0951747 107.568318,45.3439905 L108.682839,45.3439905 L108.682839,39.5809651 L107.568318,39.5809651 C107.568318,40.8336294 107.076119,41.5513618 106.385908,41.5513618 L105.099777,41.5513618 L105.099777,37.6047957 L108.450883,37.6047957 C109.955769,37.6047957 110.706326,38.5899941 110.706326,39.7079633 L110.706326,41.0683837 L112,41.0683837 Z" />
            <path
               fill="#231F20"
               id="Fill-21"
               d="M124.871818,45.2419944 L124.871818,46.5783009 C124.871818,47.4831116 124.012726,47.4831116 124.012726,46.5783009 L124.012726,44.9967832 C124.012726,42.9951747 122.900491,42.3526831 122.067311,42.1987133 C123.287182,42.0010235 124.73827,40.8890189 124.73827,39.1383243 C124.73827,36.9485305 122.970255,36 120.538485,36 L113.075744,36 L113.075744,37.5853195 L113.883011,37.5853195 C114.538792,37.5853195 114.809874,37.8913584 114.809874,38.5927767 L114.809874,46.2475508 C114.809874,46.9451674 114.538792,47.255008 113.883011,47.255008 L113,47.255008 L113,48.8403275 L119.806961,48.8403275 L119.806961,47.255008 L118.403711,47.255008 C117.755903,47.255008 117.476848,46.9451674 117.476848,46.2475508 L117.476848,43.0388946 L119.304661,43.0388946 C120.163753,43.0388946 121.3318,43.1833601 121.3318,44.6793391 L121.3318,46.5136716 C121.3318,47.7549349 122.089236,49 123.815394,49 C124.804048,49 126,48.3879222 126,46.6410294 L126,45.2419944 L124.871818,45.2419944 Z M119.898651,41.3262173 L117.476848,41.3262173 L117.476848,37.5853195 L119.850813,37.5853195 C120.901257,37.5853195 122.045385,38.1631818 122.045385,39.3759322 C122.045385,40.2389238 121.449402,41.3262173 119.898651,41.3262173 Z" />
            <path
               fill="#231F20"
               id="Fill-23"
               d="M147.222329,37.60672 L148,37.60672 L148,36 L142,36 L142,37.60672 L142.741097,37.60672 C143.372474,37.60672 143.634264,37.9184429 143.634264,38.62463 L143.634264,46.2310539 C143.634264,46.937241 143.228104,47.39328 142.594803,47.39328 L142,47.39328 L142,49 L147.926853,49 L147.926853,47.39328 L147.368624,47.39328 C146.737247,47.39328 146.329163,46.937241 146.329163,46.2310539 L146.329163,38.62463 C146.329163,37.9184429 146.592878,37.60672 147.222329,37.60672" />
            <path
               fill="#231F20"
               id="Fill-25"
               d="M159.759128,43.6044997 C159.697184,45.651865 159.613261,47.39328 157.071571,47.39328 L154.386013,47.39328 L154.386013,38.62463 C154.386013,37.9184429 154.659764,37.60672 155.315168,37.60672 L156.432153,37.60672 L156.432153,36 L150.075931,36 L150.075931,37.60672 L150.813261,37.60672 C151.466667,37.60672 151.740418,37.9184429 151.740418,38.62463 L151.740418,46.37537 C151.740418,47.0834813 151.466667,47.3952043 150.813261,47.3952043 L150,47.3952043 L150,49 L161,49 L161,43.6044997 L159.759128,43.6044997 Z" />
            <path
               fill="#231F20"
               id="Fill-27"
               d="M171.759128,43.6044997 C171.697184,45.651865 171.613261,47.39328 169.071571,47.39328 L166.386013,47.39328 L166.386013,38.62463 C166.386013,37.9184429 166.659764,37.60672 167.315168,37.60672 L168.432153,37.60672 L168.432153,36 L162.075931,36 L162.075931,37.60672 L162.813261,37.60672 C163.466667,37.60672 163.740418,37.9184429 163.740418,38.62463 L163.740418,46.37537 C163.740418,47.0834813 163.466667,47.3952043 162.813261,47.3952043 L162,47.3952043 L162,49 L173,49 L173,43.6044997 L171.759128,43.6044997 Z" />
            <path
               fill="#231F20"
               id="Fill-29"
               d="M138.871818,45.2419944 L138.871818,46.5783009 C138.871818,47.4831116 138.012726,47.4831116 138.012726,46.5783009 L138.012726,44.9967832 C138.012726,42.9951747 136.900491,42.3526831 136.067311,42.1987133 C137.287182,42.0010235 138.73827,40.8890189 138.73827,39.1383243 C138.73827,36.9485305 136.970255,36 134.538485,36 L127.075744,36 L127.075744,37.5853195 L127.883011,37.5853195 C128.538792,37.5853195 128.809874,37.8913584 128.809874,38.5927767 L128.809874,46.2475508 C128.809874,46.9451674 128.538792,47.255008 127.883011,47.255008 L127,47.255008 L127,48.8403275 L133.806961,48.8403275 L133.806961,47.255008 L132.403711,47.255008 C131.755903,47.255008 131.476848,46.9451674 131.476848,46.2475508 L131.476848,43.0388946 L133.304661,43.0388946 C134.163753,43.0388946 135.3318,43.1833601 135.3318,44.6793391 L135.3318,46.5136716 C135.3318,47.7549349 136.089236,49 137.815394,49 C138.804048,49 140,48.3879222 140,46.6410294 L140,45.2419944 L138.871818,45.2419944 Z M133.898651,41.3262173 L131.476848,41.3262173 L131.476848,37.5853195 L133.850813,37.5853195 C134.901257,37.5853195 136.045385,38.1631818 136.045385,39.3759322 C136.045385,40.2389238 135.449402,41.3262173 133.898651,41.3262173 Z" />
          </g>
        </g>
      </g>
    </g>
  </g>
</svg>
